HIERARCHY
ROOT Hips
{
  OFFSET 0 0 0
  CHANNELS 6 Xposition Yposition Zposition Zrotation Xrotation Yrotation
  JOINT Spine
  {
    OFFSET 0 10.1816 0.131521
    CHANNELS 3 Zrotation Xrotation Yrotation
    JOINT Spine1
    {
      OFFSET 0 10.0835 -1.0008
      CHANNELS 3 Zrotation Xrotation Yrotation
      JOINT Spine2
      {
        OFFSET 0 9.10001 -1.37342
        CHANNELS 3 Zrotation Xrotation Yrotation
        JOINT Neck
        {
          OFFSET 0 16.6717 -2.51617
          CHANNELS 3 Zrotation Xrotation Yrotation
          JOINT Head
          {
            OFFSET 0 9.61788 1.68501
            CHANNELS 3 Zrotation Xrotation Yrotation
            End Site
            {
              OFFSET 0 0 0
            }
          }
        }
        JOINT LeftShoulder
        {
          OFFSET 4.57045 10.946 -2.62799
          CHANNELS 3 Zrotation Xrotation Yrotation
          JOINT LeftArm
          {
            OFFSET 10.5924 -0.524583 -2.23212
            CHANNELS 3 Zrotation Xrotation Yrotation
            JOINT LeftForeArm
            {
              OFFSET 27.8415 -8.94286e-05 3.74589e-05
              CHANNELS 3 Zrotation Xrotation Yrotation
              JOINT LeftHand
              {
                OFFSET 28.3288 -1.74407e-05 3.78045e-05
                CHANNELS 3 Zrotation Xrotation Yrotation
                End Site
                {
                  OFFSET 0 0 0
                }
              }
            }
          }
        }
        JOINT RightShoulder
        {
          OFFSET -4.56997 10.9462 -2.62802
          CHANNELS 3 Zrotation Xrotation Yrotation
          JOINT RightArm
          {
            OFFSET -10.5928 -0.524798 -2.2321
            CHANNELS 3 Zrotation Xrotation Yrotation
            JOINT RightForeArm
            {
              OFFSET -27.8415 -3.30792e-05 1.16763e-05
              CHANNELS 3 Zrotation Xrotation Yrotation
              JOINT RightHand
              {
                OFFSET -28.3288 0 5.5816e-05
                CHANNELS 3 Zrotation Xrotation Yrotation
                End Site
                {
                  OFFSET 0 0 0
                }
              }
            }
          }
        }
      }
    }
  }
  JOINT LeftUpLeg
  {
    OFFSET 8.20778 -6.75171 -1.59956
    CHANNELS 3 Zrotation Xrotation Yrotation
    JOINT LeftLeg
    {
      OFFSET 0 -44.3705 0.284643
      CHANNELS 3 Zrotation Xrotation Yrotation
      JOINT LeftFoot
      {
        OFFSET 0 -44.4279 -2.98219
        CHANNELS 3 Zrotation Xrotation Yrotation
        JOINT LeftToeBase
        {
          OFFSET 0 -8.72867 10.7106
          CHANNELS 3 Zrotation Xrotation Yrotation
          End Site
          {
            OFFSET 0 0 0
          }
        }
      }
    }
  }
  JOINT RightUpLeg
  {
    OFFSET -8.2078 -6.75166 -1.59956
    CHANNELS 3 Zrotation Xrotation Yrotation
    JOINT RightLeg
    {
      OFFSET 0 -44.3705 0.286156
      CHANNELS 3 Zrotation Xrotation Yrotation
      JOINT RightFoot
      {
        OFFSET 0 -44.4277 -2.98379
        CHANNELS 3 Zrotation Xrotation Yrotation
        JOINT RightToeBase
        {
          OFFSET 0 -8.72867 10.7106
          CHANNELS 3 Zrotation Xrotation Yrotation
          End Site
          {
            OFFSET 0 0 0
          }
        }
      }
    }
  }
}
MOTION
Frames:	19
Frame Time:	0.0333333
0.793505 314.793 -0.292372 12.1051 -13.8327 53.5613 4.48999 30.8042 -0.435666 6.28858 25.776 -9.76016 3.10009 -5.57096 10.1003 -24.2839 -11.6882 -30.5849 15.5905 -6.28802 -13.8996 -3.71213 0.79394 2.96226 -54.8145 16.3584 -42.2613 -0.000227868 7.80138e-06 -104.811 1.2842 14.0612 -37.1057 -13.3901 -4.36714 9.22141 72.8354 11.3992 -13.0722 -3.09151e-05 7.77847e-06 95.8517 -19.8602 26.9521 31.1297 37.9044 -9.49975 29.8922 -11.588 65.2959 4.63024 -0.147641 -24.1203 -15.5769 -2.92715e-07 -0.0319383 -3.29827e-05 -31.7396 -11.5636 -23.7625 -0.346159 27.5194 1.58647 22.1033 15.9481 -3.54497 9.53225e-07 -3.07697 5.01975e-06 
0.750572 314.854 1.04352 10.3997 -11.6629 49.3473 4.34641 28.5725 -0.789931 6.44853 23.7557 -9.40875 3.39918 -5.47055 9.07002 -24.4797 -12.3172 -27.7558 15.0411 -4.92147 -11.4879 -4.65934 1.68816 -1.14256 -46.753 14.2726 -44.2302 -0.000183851 -6.70221e-06 -102.687 -7.03887 12.436 -34.281 -8.81042 -4.05167 8.24967 65.2792 11.4936 -11.531 4.33611e-07 -8.89992e-06 95.5786 -10.1547 21.0531 26.8061 36.2508 -9.59072 30.3784 -10.4921 64.1879 6.60227 -3.24848 -24.0818 -15.4236 -1.70241e-06 -0.031945 -1.15655e-06 -32.3356 -17.0613 -23.6483 -0.61614 30.2882 3.44951 21.2596 14.632 -3.25288 3.63221e-06 -3.24213 1.55413e-07 
0.715009 314.86 2.43699 8.91392 -9.34834 45.2661 4.20269 26.3518 -1.15937 6.63032 21.7717 -9.01426 3.72421 -5.34356 8.06923 -24.7585 -13.029 -24.9015 14.6885 -3.37411 -9.10973 -5.4404 2.51873 -5.71966 -40.1972 9.00014 -46.923 -0.000198683 -3.10366e-06 -101.736 -16.7124 11.3299 -31.179 -3.55061 -3.65414 6.82907 56.5367 11.95 -6.92969 1.62042e-07 -4.44458e-06 94.176 -1.14664 14.2104 23.1993 34.3597 -9.8995 30.67 -8.93402 63.1462 7.3269 -6.05753 -24.0971 -14.0232 4.77189e-07 -0.031943 -1.67349e-05 -32.9134 -22.4199 -23.9575 -1.01487 32.9193 5.61244 20.363 13.3955 -2.98695 -2.69894e-06 -3.45634 3.80224e-06 
0.671249 314.871 3.95048 7.5745 -6.95388 41.2149 4.04968 24.1423 -1.51593 6.79411 19.8138 -8.57085 4.04045 -5.19923 7.10191 -24.9651 -13.6643 -22.0169 14.2167 -1.93891 -6.84568 -6.1071 3.21 -10.5122 -36.8011 1.46705 -50.3731 -0.000259098 3.01878e-06 -101.411 -27.2498 10.6489 -28.2722 -0.691598 -2.99387 3.88797 49.8423 14.7572 1.06444 -9.12966e-05 -8.838e-06 93.3205 6.16032 6.75288 21.2274 32.3818 -10.2407 30.7688 -7.24645 61.9582 7.28493 -8.6355 -24.1884 -11.6495 3.87913e-06 -0.0319541 -1.71251e-05 -33.0462 -27.6761 -23.6556 -1.43302 35.2828 7.19855 19.5126 12.203 -2.65996 2.30811e-06 -3.76971 -4.09759e-06 
0.610404 314.986 5.60704 6.31059 -4.53446 37.1158 3.9491 21.8688 -1.91383 6.94683 17.6884 -8.29166 4.29414 -5.21802 5.96261 -24.8567 -13.8696 -19.0481 13.175 -0.94204 -4.43128 -6.7792 3.72681 -15.1209 -36.8026 -6.10306 -54.6579 -0.000243107 1.11839e-05 -100.558 -37.0904 9.4317 -26.2776 -2.24876 -2.37426 1.12193 48.1662 20.289 9.69033 1.49156e-05 9.70307e-06 94.0516 11.1433 -0.615063 21.7948 30.4246 -10.3956 30.6486 -5.84069 60.338 7.27476 -11.0748 -24.257 -8.80681 8.71673e-08 -0.0319457 -2.43187e-05 -32.6839 -32.5853 -23.125 -1.67433 37.0576 8.44282 18.4974 11.2217 -2.19376 -3.23377e-07 -4.1377 -1.85545e-06 
0.513539 315.392 7.54145 4.94907 -2.18177 32.7706 3.91626 19.5585 -2.28385 7.03543 15.4265 -8.14985 4.46377 -5.37079 4.69995 -24.001 -13.1017 -15.9854 10.6452 -1.20518 -1.66421 -7.6255 4.0847 -19.1805 -38.7918 -11.989 -59.8495 -0.0001834 -4.22708e-06 -97.9618 -44.5536 7.22989 -25.9902 -5.14942 -2.26009 2.01027 50.9659 25.3689 15.2502 -6.08627e-05 -3.23985e-06 96.0942 14.04 -5.30855 24.4313 28.6435 -9.94315 30.35 -4.92059 57.731 7.88524 -13.5121 -24.0191 -5.89562 -1.74988e-06 -0.0551018 1.55969e-05 -30.9243 -37.0742 -21.3663 -2.00052 37.8961 8.73684 17.5409 10.5665 -1.30963 -4.64221e-06 -4.52212 -1.29169e-06 
0.784357 315.772 9.3593 3.56022 -3.28167 27.5638 3.72835 17.5594 -2.32666 6.72184 13.8338 -7.19146 4.51172 -4.88803 4.28882 -22.3231 -11.8693 -13.1953 6.4591 -3.89169 -0.0261403 -8.63286 4.31679 -22.3915 -41.4773 -16.4991 -65.3269 -0.00035088 2.10187e-06 -93.9493 -49.7531 5.34723 -28.1809 -4.81672 -2.27843 4.1815 53.4361 27.8011 19.1143 -1.52588e-05 -5.69857e-15 100.111 16.2843 -3.21674 27.3024 28.5371 -6.17113 28.8297 -4.64323 55.5253 9.82575 -16.3702 -24.4028 -3.58097 -2.82533e-06 -0.0607782 -3.90383e-05 -24.6618 -38.6347 -15.5078 -2.67844 38.0223 8.01789 17.1765 10.0833 0.149723 1.42253e-06 -4.98404 -3.86033e-06 
1.12078 316.093 11.2202 2.1915 -5.64645 22.174 3.18393 15.7873 -2.05514 5.94598 12.7572 -5.44783 4.32173 -3.91312 4.69109 -20.3626 -11.3163 -10.8813 2.19503 -9.16146 -0.748054 -9.96967 4.47374 -24.4064 -42.7032 -19.8728 -70.9192 -0.000131677 6.30215e-06 -87.0269 -51.4435 1.11965 -33.1974 -2.08412 -1.90755 2.58681 51.4925 29.5406 26.2532 -3.82459e-14 -8.85794e-15 105.836 17.7417 5.61018 31.2801 28.6268 -0.715659 26.9447 -4.58282 53.1229 12.4513 -19.312 -24.7119 -1.84028 -3.74388e-07 0.0599027 -7.04275e-06 -17.4446 -38.2973 -8.89551 -3.3849 38.2592 7.53268 16.8981 9.39468 1.60926 2.2282e-06 -5.4639 -4.14587e-06 
0.867337 316.911 13.6488 1.63245 -5.7748 19.0698 2.58607 13.6792 -1.90403 5.26377 10.9161 -4.34284 3.99753 -3.67664 4.47434 -18.3268 -11.1621 -8.69452 -0.911941 -16.0151 -2.18501 -12.6466 4.74977 -24.7334 -35.1602 -20.258 -77.1747 -0.000234372 -1.64193e-05 -69.7701 -44.8951 -11.1578 -42.5278 -3.60643 -1.58132 1.63001 50.3447 26.9356 35.6704 1.4305e-05 5.31023e-06 110.366 18.0932 13.0058 37.3885 27.5636 3.69934 26.3107 -4.6113 48.1572 13.3353 -20.5912 -23.4263 -0.00682642 6.77482e-06 -0.111591 6.24369e-06 -13.958 -38.1055 -6.03275 -3.62802 38.6431 7.64307 15.9036 8.20774 2.627 4.72628e-08 -5.78814 2.8838e-06 
0.0596769 318.114 16.4157 2.16844 -4.31736 18.5625 1.87034 11.2841 -1.71619 4.34462 8.40633 -3.61487 3.28958 -4.10242 3.87275 -15.6805 -10.9389 -6.81396 -2.43191 -21.9872 -4.64878 -15.935 5.30843 -23.8246 -18.0836 -21.9385 -78.591 -0.000195347 3.23159e-06 -49.9911 -32.6649 -21.3951 -58.8091 -10.3674 -1.39582 3.50369 55.5314 16.3194 43.1193 -2.33334e-13 1.2942e-12 112.615 25.0013 8.51115 42.1848 25.8545 7.4222 27.1577 -4.77647 40.6724 12.6161 -20.3878 -20.2895 0.939106 4.20027e-07 -0.384255 1.09884e-06 -14.0617 -38.0361 -6.80752 -3.30546 39.0954 8.16207 14.2946 6.59995 3.10922 -3.93216e-07 -5.94102 -8.65129e-06 
-1.08533 319.375 19.0274 3.43961 -2.11796 21.1653 1.0998 9.06973 -1.10963 2.86447 6.2598 -2.35817 2.1116 -4.1669 3.83302 -12.6902 -11.437 -5.77276 -3.85283 -26.3371 -10.1836 -15.8629 5.69407 -23.9691 -8.21225 -22.7136 -64.5216 -0.00021534 -1.05688e-05 -55.7888 -15.874 -19.0869 -66.7066 -20.5305 -0.226748 -0.593634 65.3382 2.31688 49.5276 1.52588e-05 2.95052e-15 114.866 40.3768 -8.19627 49.7405 23.2896 8.99696 26.964 -3.2474 32.3789 11.5096 -20.6496 -15.4677 0.865019 1.44706e-06 1.60214 -5.89228e-06 -17.2623 -37.6028 -10.7128 -2.52244 39.7956 9.24855 12.706 4.46164 2.13796 1.67953e-06 -5.89735 2.07235e-06 
-2.2901 320.17 21.1291 3.72387 0.338813 27.3087 1.33536 7.26255 -0.337925 1.80568 4.98228 -0.856252 1.35399 -3.35833 4.07925 -10.6365 -12.6641 -5.31614 -8.43707 -31.5507 -17.6025 -12.4116 5.59417 -25.9264 -12.5739 -21.5041 -38.0008 -8.20503e-05 8.32628e-06 -85.544 3.92823 -8.80511 -63.0516 -26.665 1.36934 -8.98314 70.4283 -14.239 59.9425 1.52588e-05 2.98928e-12 112.402 49.1164 -22.9197 60.1935 24.7777 -0.438777 22.0247 0.239858 38.8499 3.71223 -21.8322 -13.1321 1.79932 -9.22226e-07 4.36625 2.1443e-06 -21.3236 -37.0309 -15.9272 -1.81558 41.3409 9.00164 11.8707 1.72159 0.11533 9.35723e-07 -5.50348 -5.00341e-06 
-3.45817 320.765 23.2914 3.06976 1.81172 34.6007 1.80847 5.76693 0.473843 1.25338 4.30788 0.503971 1.00921 -1.98463 4.21079 -9.31345 -13.4779 -5.0489 -16.1643 -36.1084 -26.8563 -12.2442 6.4105 -25.2253 -16.7916 -12.9503 -9.37212 -0.000212824 4.87274e-06 -108.623 28.3922 1.85277 -56.9965 -24.6536 1.31116 -11.8903 58.1059 -36.5569 71.5574 -9.49831e-05 6.9809e-06 84.1397 27.9587 -41.0335 47.7037 25.845 -9.88673 18.0421 2.5668 43.6335 -6.39704 -24.9496 -9.01996 2.89381 3.1498e-06 3.04255 -1.35091e-05 -23.0128 -35.6849 -18.8004 -2.13512 43.0321 5.48491 11.9654 -1.08165 -0.545216 -3.70618e-06 -4.73816 -1.38443e-05 
-4.30006 321.135 25.414 2.18415 1.82618 40.286 2.27582 4.35194 1.21604 0.798741 3.816 1.76627 0.687712 -0.402936 4.24287 -7.7838 -13.1053 -4.68334 -22.9045 -37.2597 -38.3521 -16.4832 8.80631 -18.865 -25.6502 3.79027 4.24909 -0.000214629 -5.44916e-06 -110.923 48.9357 6.04992 -53.8731 -30.447 -0.675325 -4.22975 15.5491 -53.3924 46.0222 -1.71467e-05 3.95307e-06 30.1414 -39.8993 -52.4953 -15.9162 27.2915 -15.6328 18.0209 2.13476 47.6614 -9.17849 -28.1238 -3.53451 2.83079 -8.72353e-06 -1.92832 7.13517e-06 -21.719 -34.2189 -18.6763 -3.43969 44.59 0.965476 12.5422 -3.33552 -0.00459997 7.17012e-07 -4.04555 -4.4142e-06 
-4.51886 321.356 27.1474 1.20048 2.12676 44.3535 2.86186 2.76702 1.78694 0.381182 3.13132 2.86943 0.346474 1.11536 4.0496 -5.37591 -11.0915 -4.05045 -26.6285 -35.7081 -49.5641 -18.462 11.1663 -11.3032 -34.2116 12.0371 -1.4572 -0.000228509 4.75701e-06 -98.9677 43.7944 2.18203 -53.6418 -39.6664 -2.22963 4.62328 -11.8143 -47.48 13.6558 2.56653e-06 9.01157e-07 6.73426 -75.0264 -29.0491 -55.0875 27.3752 -18.3308 18.6081 1.15731 49.4718 -5.32704 -28.2523 2.40567 2.51267 4.56849e-06 -10.9657 -1.87741e-05 -20.9041 -33.4424 -18.7891 -4.11289 45.6602 -2.32326 12.8693 -4.97227 0.498678 9.76668e-07 -3.79633 2.26419e-05 
-4.07703 321.416 28.4912 -0.019444 3.11394 49.0949 3.3734 1.43536 1.95141 0.0647558 2.36519 3.23351 0.0599154 2.02516 3.43489 -2.77639 -7.394 -3.58004 -27.5319 -33.1003 -56.4219 -18.3097 13.1081 -5.98915 -41.6679 17.393 -12.7658 -8.83275e-05 2.06061e-06 -85.5653 19.6928 -3.94108 -46.4536 -39.9562 -1.64942 3.24336 -15.5716 -50.7934 6.76584 4.66316e-07 -8.60451e-06 8.57648 -72.2934 -24.567 -55.053 24.0624 -18.8648 15.6439 2.08376 45.7338 -1.28942 -26.7643 4.39728 1.85383 1.06242e-05 -19.6206 1.70331e-05 -21.9551 -32.7682 -20.2319 -3.73657 46.6046 -4.89437 13.6759 -6.81917 -0.0353894 -1.0317e-07 -3.78111 5.2195e-06 
-2.96768 321.795 29.0998 0.35442 2.60351 54.1552 3.41988 1.14252 1.73619 -0.137477 2.23708 2.8349 -0.13829 2.30804 2.80136 -1.48958 -3.22741 -3.49259 -25.8923 -31.5383 -57.2302 -19.2564 14.4238 -2.74273 -44.3 20.3241 -16.2928 -6.94291e-05 8.46768e-06 -86.0242 5.0744 -7.15797 -34.025 -37.0343 -0.511187 -0.930675 -12.4739 -59.107 11.7923 8.11737e-07 -4.30662e-06 7.75528 -69.5053 -26.9209 -44.4826 19.8728 -13.2921 12.1851 3.11468 35.6853 1.34037 -24.006 -3.19847 -0.0639223 -1.12632e-05 -15.6948 -2.17357e-05 -22.5145 -29.0156 -20.5822 -3.40809 46.0304 -6.58783 15.3569 -8.22105 -1.82588 -4.97335e-06 -3.88704 1.71352e-05 
-2.1092 322.284 29.5871 0.780948 2.26481 54.7592 2.78359 1.43019 1.63068 -0.328367 2.67111 2.81709 -0.330418 2.6181 2.85924 -1.26112 -0.691102 -3.27044 -22.6923 -31.161 -54.9742 -20.6593 14.9863 -1.17557 -41.9462 18.4769 -17.2932 0.00116426 9.85174e-07 -89.5896 4.93023 -6.38049 -23.8652 -35.318 0.464771 -3.67982 -5.53322 -66.8246 18.4741 2.25568e-06 1.13796e-05 7.33346 -69.5566 -27.1656 -38.5844 18.3188 -7.37071 12.1945 2.77519 27.9266 3.67573 -23.5013 -10.9149 -1.44826 -1.13201e-06 -5.55933 -3.23777e-05 -22.0265 -26.9475 -20.0439 -3.39963 44.7371 -6.61153 15.7638 -8.58345 -2.41522 -3.79877e-06 -4.2605 2.95538e-06 
-1.40888 322.705 29.7599 0.745546 1.61517 52.4503 2.32497 1.63948 1.73828 -0.289766 3.08532 3.2683 -0.290609 3.03267 3.31083 -1.75548 -0.287132 -2.6575 -18.5147 -30.2316 -51.6333 -21.8257 15.344 -0.779933 -37.6701 15.245 -19.4689 0.000205134 -3.9477e-06 -88.9769 8.95522 -4.42191 -16.2107 -33.5099 1.43903 -6.48512 11.6731 -72.6514 36.089 3.34306e-06 -7.5042e-06 6.86181 -65.4888 -35.3778 -34.8747 18.1852 -4.3654 12.5486 2.44577 25.6114 4.99779 -23.6073 -12.7768 -0.771499 -2.11741e-06 -3.06365 -2.48528e-05 -20.9511 -26.1181 -19.528 -3.2998 43.0983 -6.47299 15.374 -7.89335 -0.936475 -9.21681e-08 -4.60256 -1.32524e-06 
